<svg width="173" height="40" viewBox="0 0 173 40" fill="none" xmlns="http://www.w3.org/2000/svg">
<path d="M25.998 19.236C28.23 19.92 29.94 21.072 31.128 22.692C32.316 24.276 32.91 26.238 32.91 28.578C32.91 30.666 32.352 32.502 31.236 34.086C30.156 35.634 28.59 36.84 26.538 37.704C24.522 38.568 22.146 39 19.41 39H5.046C3.57 39 2.436 38.604 1.644 37.812C0.852 37.02 0.456 35.886 0.456 34.41V5.52C0.456 4.044 0.852 2.91 1.644 2.118C2.436 1.326 3.57 0.929998 5.046 0.929998H18.87C22.866 0.929998 26.034 1.83 28.374 3.63C30.75 5.394 31.938 7.788 31.938 10.812C31.938 12.756 31.416 14.484 30.372 15.996C29.328 17.472 27.87 18.552 25.998 19.236ZM10.122 15.888H17.196C19.068 15.888 20.436 15.6 21.3 15.024C22.164 14.448 22.596 13.53 22.596 12.27C22.596 10.938 22.164 9.966 21.3 9.354C20.436 8.742 19.068 8.436 17.196 8.436H10.122V15.888ZM18.168 31.494C20.148 31.494 21.552 31.188 22.38 30.576C23.244 29.928 23.676 28.884 23.676 27.444C23.676 26.004 23.244 24.978 22.38 24.366C21.552 23.718 20.148 23.394 18.168 23.394H10.122V31.494H18.168ZM49.7209 11.784C53.8249 11.784 56.8489 12.774 58.7929 14.754C60.7729 16.698 61.7629 19.668 61.7629 23.664V34.95C61.7629 36.318 61.3489 37.398 60.5209 38.19C59.7289 38.946 58.6129 39.324 57.1729 39.324C55.9129 39.324 54.8689 38.964 54.0409 38.244C53.2489 37.524 52.8169 36.552 52.7449 35.328C52.2409 36.624 51.3949 37.632 50.2069 38.352C49.0189 39.072 47.5969 39.432 45.9409 39.432C44.1049 39.432 42.4489 39.072 40.9729 38.352C39.4969 37.596 38.3269 36.57 37.4629 35.274C36.6349 33.942 36.2209 32.448 36.2209 30.792C36.2209 28.884 36.7069 27.372 37.6789 26.256C38.6869 25.104 40.2709 24.276 42.4309 23.772C44.5909 23.268 47.5069 23.016 51.1789 23.016H52.6369V22.368C52.6369 21.108 52.3489 20.208 51.7729 19.668C51.1969 19.092 50.2249 18.804 48.8569 18.804C47.3809 18.804 45.2209 19.308 42.3769 20.316C41.5489 20.604 40.8469 20.748 40.2709 20.748C39.3709 20.748 38.6509 20.424 38.1109 19.776C37.5709 19.128 37.3009 18.282 37.3009 17.238C37.3009 16.446 37.4629 15.798 37.7869 15.294C38.1109 14.79 38.6329 14.34 39.3529 13.944C40.6129 13.296 42.1969 12.774 44.1049 12.378C46.0129 11.982 47.8849 11.784 49.7209 11.784ZM48.2089 33.006C49.5049 33.006 50.5669 32.556 51.3949 31.656C52.2229 30.72 52.6369 29.532 52.6369 28.092V27.444H51.7729C49.4689 27.444 47.8309 27.66 46.8589 28.092C45.8869 28.488 45.4009 29.172 45.4009 30.144C45.4009 30.972 45.6529 31.656 46.1569 32.196C46.6969 32.736 47.3809 33.006 48.2089 33.006ZM77.6258 39.432C75.2138 39.432 73.1798 39.252 71.5238 38.892C69.8678 38.532 68.4098 37.956 67.1498 37.164C66.6458 36.912 66.2498 36.48 65.9618 35.868C65.6738 35.256 65.5298 34.572 65.5298 33.816C65.5298 32.844 65.7818 32.052 66.2858 31.44C66.8258 30.792 67.4918 30.468 68.2838 30.468C68.8238 30.468 69.3278 30.54 69.7958 30.684C70.2638 30.792 70.8398 30.99 71.5238 31.278C72.6758 31.674 73.6838 31.98 74.5478 32.196C75.4478 32.412 76.5818 32.52 77.9498 32.52C78.9218 32.52 79.6778 32.394 80.2178 32.142C80.7938 31.854 81.0818 31.458 81.0818 30.954C81.0818 30.558 80.9378 30.252 80.6498 30.036C80.3978 29.82 79.8938 29.622 79.1378 29.442C78.3818 29.226 77.1038 28.938 75.3038 28.578C72.0998 27.966 69.7778 27.048 68.3378 25.824C66.9338 24.564 66.2318 22.8 66.2318 20.532C66.2318 18.876 66.7358 17.382 67.7438 16.05C68.7878 14.718 70.2098 13.674 72.0098 12.918C73.8098 12.162 75.8258 11.784 78.0578 11.784C79.6778 11.784 81.2438 11.982 82.7558 12.378C84.3038 12.774 85.6718 13.332 86.8598 14.052C87.9758 14.7 88.5338 15.744 88.5338 17.184C88.5338 18.192 88.2638 19.038 87.7238 19.722C87.1838 20.406 86.5178 20.748 85.7258 20.748C84.7898 20.748 83.6738 20.442 82.3778 19.83C81.5138 19.434 80.7398 19.146 80.0558 18.966C79.4078 18.75 78.6338 18.642 77.7338 18.642C76.8338 18.642 76.1318 18.786 75.6278 19.074C75.1238 19.326 74.8718 19.704 74.8718 20.208C74.8718 20.784 75.2138 21.234 75.8978 21.558C76.6178 21.882 78.0218 22.242 80.1098 22.638C83.6018 23.25 86.0678 24.186 87.5078 25.446C88.9478 26.67 89.6678 28.452 89.6678 30.792C89.6678 33.42 88.5698 35.526 86.3738 37.11C84.2138 38.658 81.2978 39.432 77.6258 39.432ZM120.136 31.548C121.072 32.448 121.54 33.492 121.54 34.68C121.54 35.868 121.108 36.93 120.244 37.866C119.416 38.802 118.408 39.27 117.22 39.27C116.212 39.27 115.204 38.82 114.196 37.92L103.234 27.498V34.788C103.234 36.264 102.766 37.38 101.83 38.136C100.93 38.892 99.7965 39.27 98.4285 39.27C97.0605 39.27 95.9085 38.892 94.9725 38.136C94.0725 37.38 93.6225 36.264 93.6225 34.788V5.142C93.6225 3.666 94.0725 2.55 94.9725 1.794C95.9085 1.038 97.0605 0.659998 98.4285 0.659998C99.7965 0.659998 100.93 1.038 101.83 1.794C102.766 2.55 103.234 3.666 103.234 5.142V23.448L113.224 13.296C114.124 12.36 115.168 11.892 116.356 11.892C117.508 11.892 118.516 12.342 119.38 13.242C120.28 14.106 120.73 15.096 120.73 16.212C120.73 17.328 120.262 18.354 119.326 19.29L113.44 25.122L120.136 31.548ZM146.336 30.468C147.164 30.468 147.83 30.792 148.334 31.44C148.874 32.088 149.144 32.934 149.144 33.978C149.144 35.418 148.442 36.516 147.038 37.272C145.814 37.884 144.356 38.406 142.664 38.838C141.008 39.234 139.478 39.432 138.074 39.432C135.122 39.432 132.548 38.874 130.352 37.758C128.156 36.642 126.464 35.04 125.276 32.952C124.088 30.864 123.494 28.416 123.494 25.608C123.494 22.944 124.052 20.568 125.168 18.48C126.32 16.356 127.904 14.718 129.92 13.566C131.972 12.378 134.276 11.784 136.832 11.784C139.316 11.784 141.494 12.324 143.366 13.404C145.238 14.484 146.678 16.014 147.686 17.994C148.73 19.974 149.252 22.296 149.252 24.96C149.252 25.788 149.054 26.436 148.658 26.904C148.298 27.336 147.758 27.552 147.038 27.552H132.782C133.034 29.28 133.592 30.522 134.456 31.278C135.32 32.034 136.598 32.412 138.29 32.412C139.19 32.412 140.018 32.322 140.774 32.142C141.53 31.926 142.376 31.638 143.312 31.278C143.852 31.062 144.374 30.882 144.878 30.738C145.418 30.558 145.904 30.468 146.336 30.468ZM137.102 18.264C135.842 18.264 134.834 18.678 134.078 19.506C133.322 20.298 132.872 21.468 132.728 23.016H141.206C140.99 19.848 139.622 18.264 137.102 18.264ZM168.715 32.466C171.127 32.61 172.333 33.69 172.333 35.706C172.333 36.966 171.847 37.902 170.875 38.514C169.903 39.126 168.517 39.378 166.717 39.27L165.205 39.162C161.965 38.91 159.499 37.938 157.807 36.246C156.151 34.518 155.323 32.124 155.323 29.064V19.506H153.757C150.877 19.506 149.437 18.318 149.437 15.942C149.437 13.602 150.877 12.432 153.757 12.432H155.323V8.922C155.323 7.554 155.755 6.474 156.619 5.682C157.483 4.854 158.653 4.44 160.129 4.44C161.605 4.44 162.775 4.854 163.639 5.682C164.503 6.474 164.935 7.554 164.935 8.922V12.432H167.905C170.785 12.432 172.225 13.602 172.225 15.942C172.225 18.318 170.785 19.506 167.905 19.506H164.935V29.874C164.935 30.558 165.133 31.134 165.529 31.602C165.961 32.07 166.501 32.322 167.149 32.358L168.715 32.466Z" fill="black"/>
</svg>
